<svg xmlns="http://www.w3.org/2000/svg" xmlns:xlink="http://www.w3.org/1999/xlink" width="52" height="36" viewBox="0 0 52 36"><defs><path id="zgtca" d="M1388.738 1146.147v-22.164c0-1.364 1.105-2.482 2.458-2.48h10.816v-1.445c0-.995.382-1.923 1.082-2.628a3.64 3.64 0 0 1 2.607-1.095h6.29c2.029 0 3.684 1.667 3.684 3.723v1.443h10.816c1.35 0 2.458 1.118 2.458 2.482v1.654h-26.207c-2.267 0-4.74 1.55-5.742 3.608zm15.732-24.645h8.747v-1.444c0-.688-.55-1.243-1.228-1.243h-6.29c-.327 0-.636.13-.867.368a1.25 1.25 0 0 0-.362.875zm25.451 28.26c-.595 1.222-2.193 2.222-3.543 2.222h-35.298c-1.35 0-1.968-1.002-1.369-2.221l9.492-19.422c.593-1.223 2.189-2.226 3.539-2.226h35.298c1.354 0 1.969 1.003 1.371 2.226z"/></defs><g><g transform="translate(-1388 -1116)"><use xlink:href="#zgtca"/><use fill="#565656" xlink:href="#zgtca"/></g></g></svg>