<svg xmlns="http://www.w3.org/2000/svg" xmlns:xlink="http://www.w3.org/1999/xlink" width="49" height="49" viewBox="0 0 49 49"><defs><path id="2d2ha" d="M534.668 1123.717l-14.266 14.268-32.868 14.478 14.477-32.872 14.268-14.264a1.589 1.589 0 1 1 2.248 2.249l-13.844 13.846-8.576 19.466 2.999 2.999 19.467-8.573 13.847-13.844a1.587 1.587 0 0 1 2.248 0c.621.62.621 1.63 0 2.247zm-20.173 6.5l13.332-13.332a1.585 1.585 0 0 1 2.25 0c.623.62.623 1.625 0 2.249l-13.332 13.332a1.594 1.594 0 0 1-2.25 0 1.593 1.593 0 0 1 0-2.25zm-3.48-3.482l13.333-13.332a1.59 1.59 0 1 1 2.25 2.25l-13.333 13.332a1.592 1.592 0 0 1-2.25-2.25zm-3.48-3.482l13.332-13.33a1.586 1.586 0 0 1 2.25 0c.622.62.622 1.625 0 2.25l-13.333 13.33c-.31.31-.719.465-1.125.465s-.814-.154-1.125-.466a1.591 1.591 0 0 1 0-2.249z"/></defs><g><g transform="translate(-487 -1104)"><use xlink:href="#2d2ha"/><use fill="#565656" xlink:href="#2d2ha"/></g></g></svg>